<svg xmlns="http://www.w3.org/2000/svg" xmlns:xlink="http://www.w3.org/1999/xlink" width="1080" zoomAndPan="magnify" viewBox="0 0 810 809.999993" height="1080" preserveAspectRatio="xMidYMid meet" version="1.0"><defs><g/></defs><path fill="#174273" d="M 347.832031 529.910156 C 347.832031 529.828125 347.746094 529.65625 347.746094 529.488281 M 171.472656 427.652344 C 171.808594 427.992188 172.148438 428.328125 172.402344 428.585938 M 480.738281 345.625 C 480.738281 345.539062 480.824219 345.453125 480.824219 345.453125 M 479.046875 219.242188 C 479.128906 219.15625 479.214844 218.988281 479.300781 218.902344 M 479.300781 218.902344 C 479.46875 218.648438 479.636719 218.394531 479.808594 218.140625 M 385.359375 343.847656 C 385.527344 344.609375 385.695312 345.117188 385.949219 345.457031 C 385.699219 344.101562 385.527344 343.675781 385.359375 343.847656 Z M 182.058594 311.339844 C 174.773438 333.945312 170.792969 358.238281 170.792969 383.550781 C 170.792969 399.804688 172.402344 415.546875 175.535156 430.785156 C 193.15625 448.648438 212.554688 464.644531 233.476562 478.445312 L 233.5625 478.527344 C 232.546875 475.988281 231.699219 473.789062 231.105469 472.179688 C 229.582031 467.695312 226.277344 449.917969 233.054688 449.917969 C 251.773438 449.917969 252.535156 454.742188 256.007812 455.25 C 262.191406 456.011719 244.148438 441.960938 277.695312 452.371094 C 277.695312 440.351562 271.847656 435.613281 287.691406 430.109375 C 287.605469 430.109375 287.519531 430.109375 287.4375 430.195312 C 286.503906 416.820312 285.996094 403.019531 285.996094 388.96875 C 285.996094 336.738281 292.773438 288.910156 304.039062 252.085938 C 308.445312 237.78125 313.441406 225.167969 319.03125 214.585938 C 317.085938 211.113281 313.273438 207.050781 322.84375 199.09375 C 325.300781 194.777344 330.042969 194.015625 334.789062 190.207031 C 337.074219 188.34375 353.085938 183.097656 355.796875 184.535156 C 373.925781 194.015625 373.753906 182.078125 387.902344 197.316406 C 389.425781 199.011719 396.203125 208.832031 396.203125 210.609375 C 395.863281 221.527344 405.011719 219.496094 413.058594 220.34375 C 421.699219 221.273438 418.140625 220.171875 423.902344 215.601562 C 428.390625 211.964844 428.984375 210.4375 435.253906 207.730469 C 446.601562 202.988281 435.167969 197.824219 448.296875 190.96875 C 451.175781 189.53125 461.257812 192.492188 461.851562 195.539062 C 463.628906 191.394531 467.695312 202.230469 475.742188 200.363281 C 476.421875 200.195312 476.335938 199.519531 475.660156 198.589844 C 445.589844 170.992188 327.335938 162.695312 274.222656 194.777344 C 336.230469 159.5625 413.230469 157.449219 477.097656 189.023438 C 548.761719 224.492188 598.0625 298.222656 598.0625 383.550781 C 598.0625 503.335938 500.902344 600.429688 381.039062 600.429688 C 373.667969 600.429688 366.382812 600.089844 359.183594 599.328125 C 590.4375 614.226562 672.859375 320.484375 484.808594 203.921875 C 485.738281 208.492188 483.960938 211.792969 479.808594 218.144531 C 479.808594 218.058594 479.894531 217.972656 479.980469 217.890625 C 538.257812 254.375 576.96875 319.21875 576.96875 393.117188 C 576.96875 468.035156 537.074219 533.726562 477.355469 569.871094 C 494.632812 558.953125 510.21875 545.40625 523.519531 529.746094 C 512.253906 532.710938 500.734375 535.082031 489.042969 536.941406 C 489.71875 536.09375 490.3125 535.25 490.90625 534.316406 C 482.945312 546 473.796875 556.414062 463.714844 565.300781 C 472.355469 557.089844 480.234375 547.691406 487.179688 537.28125 C 469.558594 539.988281 451.433594 541.34375 433.136719 541.34375 C 426.359375 541.34375 419.667969 541.171875 413.058594 540.75 C 413.566406 539.566406 413.992188 538.296875 414.414062 537.027344 C 419.328125 537.28125 424.238281 537.367188 429.152344 537.367188 C 450.074219 537.367188 470.574219 535.503906 490.566406 532.03125 C 506.746094 505.960938 517.503906 474.300781 520.46875 439.675781 C 492.769531 449.414062 463.207031 454.828125 432.371094 455.167969 L 432.371094 455.082031 C 422.628906 537.957031 394.929688 598.058594 362.148438 599.328125 C 381.121094 598.484375 398.320312 576.304688 410.855469 540.664062 C 389.339844 539.3125 368.332031 536.09375 347.917969 531.101562 L 347.917969 531.015625 C 349.269531 544.21875 351.8125 547.183594 358.335938 559.117188 C 359.183594 560.640625 358.421875 561.402344 358.757812 561.914062 C 357.148438 560.8125 357.148438 564.621094 357.148438 565.46875 C 357.148438 581.214844 361.722656 572.496094 361.722656 578.671875 C 361.722656 582.820312 347.578125 587.308594 344.867188 586.886719 C 354.4375 576.640625 319.03125 563.605469 311.832031 561.320312 C 305.5625 559.289062 311.066406 556.242188 297.855469 551.839844 C 296.839844 551.585938 289.636719 541.171875 281.335938 540.75 C 278.878906 540.664062 253.804688 508.582031 247.453125 504.011719 C 243.472656 501.050781 238.136719 489.703125 234.492188 480.816406 L 234.492188 480.988281 C 213.148438 466.679688 193.242188 450.089844 175.28125 431.636719 C 175.453125 431.804688 175.621094 431.972656 175.792969 432.144531 C 185.363281 477.601562 207.980469 517.726562 239.324219 547.777344 C 202.8125 516.28125 176.890625 472.855469 167.742188 423.589844 C 167.65625 423.164062 167.574219 422.828125 167.488281 422.402344 C 165.203125 409.792969 164.015625 396.839844 164.015625 383.550781 C 164.015625 355.953125 169.183594 329.457031 178.585938 305.160156 C 179.179688 303.636719 179.855469 302.199219 180.449219 300.675781 C 193.496094 269.101562 213.824219 241.25 239.320312 219.324219 C 214.671875 243.027344 195.359375 272.910156 183.667969 306.769531 C 205.269531 346.980469 236.101562 381.347656 273.203125 406.828125 C 235.679688 382.535156 204.25 349.605469 181.804688 310.832031 C 181.890625 311.003906 181.972656 311.171875 182.058594 311.339844 Z M 233.5625 478.527344 C 233.730469 478.867188 233.8125 479.289062 233.984375 479.628906 C 233.816406 479.289062 233.730469 478.867188 233.5625 478.527344 Z M 233.984375 479.628906 C 234.070312 479.882812 234.15625 480.050781 234.238281 480.222656 C 234.15625 480.050781 234.070312 479.882812 233.984375 479.628906 Z M 234.238281 480.222656 C 234.324219 480.390625 234.410156 480.644531 234.492188 480.8125 C 234.40625 480.644531 234.324219 480.390625 234.238281 480.222656 Z M 175.28125 431.632812 C 174.945312 431.292969 174.691406 430.953125 174.351562 430.617188 C 174.6875 430.953125 174.941406 431.292969 175.28125 431.632812 Z M 174.351562 430.617188 C 173.671875 429.9375 173.078125 429.261719 172.402344 428.667969 C 173.078125 429.261719 173.671875 429.9375 174.351562 430.617188 Z M 171.472656 427.652344 C 171.132812 427.316406 170.878906 426.976562 170.539062 426.636719 C 170.878906 426.976562 171.128906 427.316406 171.472656 427.652344 Z M 170.539062 426.636719 C 170.199219 426.296875 169.859375 425.960938 169.605469 425.621094 C 169.859375 425.960938 170.199219 426.296875 170.539062 426.636719 Z M 169.605469 425.621094 C 169.265625 425.28125 168.929688 424.945312 168.671875 424.605469 C 168.929688 424.945312 169.265625 425.28125 169.605469 425.621094 Z M 168.675781 424.605469 C 168.335938 424.265625 167.996094 423.929688 167.742188 423.589844 C 167.996094 423.929688 168.335938 424.265625 168.675781 424.605469 Z M 490.90625 534.3125 C 491.328125 533.636719 491.835938 532.960938 492.257812 532.28125 C 491.835938 532.960938 491.328125 533.636719 490.90625 534.3125 Z M 492.257812 532.28125 C 492.429688 532.113281 492.597656 531.859375 492.683594 531.605469 C 505.050781 529.40625 517.078125 526.527344 528.9375 523.054688 C 552.402344 493.003906 567.734375 455.925781 571.628906 415.460938 C 556.890625 424.351562 541.390625 431.882812 525.210938 437.980469 C 525.292969 436.371094 525.464844 434.847656 525.546875 433.324219 C 541.8125 427.144531 557.3125 419.523438 571.96875 410.550781 C 572.390625 405.558594 572.5625 400.476562 572.5625 395.316406 C 572.5625 362.640625 565.023438 331.742188 551.722656 304.316406 C 539.523438 315.828125 525.632812 325.648438 510.636719 333.519531 C 510.46875 333.179688 510.300781 332.757812 510.128906 332.417969 C 525.039062 324.207031 538.59375 313.796875 550.535156 301.777344 C 533.847656 268.59375 508.605469 240.65625 477.855469 221.101562 C 477.683594 221.441406 477.429688 221.695312 477.261719 222.035156 C 475.484375 224.660156 471.078125 233.632812 472.6875 236.847656 C 480.820312 252.761719 472.6875 259.875 481.414062 268.675781 C 485.816406 272.996094 489.96875 282.304688 489.96875 289.078125 C 489.96875 291.789062 490.140625 294.074219 490.394531 296.019531 C 512.757812 328.1875 526.308594 369.921875 526.308594 415.546875 C 526.3125 459.820312 513.523438 500.453125 492.257812 532.28125 Z M 347.578125 527.882812 C 368.5 532.789062 390.101562 535.921875 412.210938 536.9375 C 419.832031 514.167969 425.679688 486.230469 428.980469 455.25 C 411.703125 455.164062 394.757812 453.554688 378.324219 450.507812 C 380.105469 455.332031 383.152344 459.820312 385.949219 462.785156 C 392.132812 469.214844 385.015625 488.6875 377.140625 494.949219 C 368.332031 501.894531 369.855469 507.140625 357.65625 511.289062 C 346.902344 515.011719 346.816406 520.429688 347.578125 527.882812 Z M 347.917969 530.929688 C 347.917969 530.589844 347.832031 530.25 347.832031 529.996094 C 347.832031 530.25 347.917969 530.589844 347.917969 530.929688 Z M 377.394531 447.460938 C 393.066406 450.171875 409.160156 451.609375 425.59375 451.609375 C 426.863281 451.609375 428.132812 451.609375 429.40625 451.609375 C 430.929688 435.863281 431.863281 419.441406 432.117188 402.425781 C 430.253906 403.273438 428.558594 404.203125 427.878906 404.964844 C 425.933594 405.21875 414.074219 411.484375 413.3125 413.09375 C 405.261719 428.839844 398.316406 423.675781 392.558594 432.054688 C 389.59375 436.457031 373.414062 439.164062 385.527344 433.492188 C 385.949219 433.238281 386.203125 432.644531 386.375 432.140625 C 397.554688 427.90625 399.503906 415.96875 398.910156 404.710938 C 398.230469 391.675781 425.421875 404.121094 412.71875 383.125 C 407.632812 374.660156 414.917969 369.75 424.152344 378.132812 C 432.199219 385.496094 445.074219 378.300781 444.738281 367.886719 C 443.71875 335.71875 423.730469 357.390625 409.496094 344.441406 C 401.535156 337.246094 395.523438 353.242188 392.046875 357.5625 C 389.929688 360.101562 390.949219 364.585938 384.425781 364.585938 C 384.425781 364.503906 384.425781 344.863281 385.355469 343.847656 C 384.511719 340.546875 383.664062 333.433594 374.007812 330.300781 C 361.214844 326.238281 382.730469 309.734375 368.671875 307.871094 C 355.539062 306.175781 330.210938 279.425781 357.066406 279.425781 C 358.757812 279.425781 358.84375 273.417969 352.574219 272.65625 C 346.308594 271.894531 322.671875 273.753906 330.972656 262.835938 C 333.855469 259.027344 338.089844 260.636719 346.390625 246.921875 C 350.882812 239.472656 357.742188 250.730469 366.042969 239.386719 C 370.703125 232.871094 380.359375 237.863281 377.902344 250.140625 C 376.464844 257.082031 382.648438 258.179688 382.308594 265.039062 C 382.308594 265.121094 385.273438 273.417969 387.5625 263.9375 C 391.625 246.753906 398.996094 251.832031 410.769531 250.476562 C 414.074219 244.042969 404.164062 236.425781 397.980469 233.96875 C 393.488281 232.109375 393.65625 224.828125 380.019531 225.25 C 375.109375 225.421875 383.410156 217.71875 371.972656 220.089844 C 368.671875 229.484375 381.546875 227.539062 362.824219 236.257812 C 362.824219 236.257812 355.117188 242.859375 355.792969 236.171875 C 356.640625 227.199219 343.425781 225.507812 362.65625 215.433594 C 367.992188 212.636719 373.5 209.335938 373.5 203.242188 C 373.5 200.363281 371.550781 192.660156 366.550781 199.855469 C 360.960938 207.984375 359.4375 195.625 355.707031 209.59375 C 352.320312 222.375 336.054688 224.660156 327.671875 231.433594 C 324.960938 233.546875 321.996094 236.765625 318.097656 236.003906 C 317.757812 235.328125 317.421875 234.734375 316.910156 234.140625 C 315.132812 238.375 313.355469 242.777344 311.660156 247.515625 C 298.277344 284.765625 289.976562 336.910156 289.976562 394.640625 C 289.976562 406.492188 290.398438 418.089844 290.992188 429.433594 C 290.90625 429.433594 290.738281 429.433594 290.652344 429.433594 C 294.125 429.347656 303.1875 429.519531 304.628906 429.519531 C 312.761719 413.265625 349.269531 413.179688 353.589844 420.039062 C 355.792969 423.507812 387.898438 412.25 377.730469 436.882812 C 376.378906 440.097656 376.464844 443.820312 377.394531 447.460938 Z M 432.371094 455.078125 C 432.542969 453.894531 432.710938 452.710938 432.796875 451.523438 C 463.628906 450.761719 493.191406 445.003906 520.808594 435.101562 C 521.144531 430.023438 521.316406 424.945312 521.316406 419.78125 C 521.316406 389.644531 515.46875 361.285156 505.222656 336.226562 C 497.34375 340.035156 489.042969 343.253906 480.570312 345.878906 C 480.65625 345.792969 480.65625 345.707031 480.738281 345.625 C 479.128906 348.671875 477.691406 349.941406 474.980469 355.105469 C 470.828125 363.230469 472.015625 375.507812 471.507812 376.4375 C 470.914062 377.707031 454.820312 391.84375 453.464844 392.691406 C 445.839844 397.261719 450.585938 398.109375 437.792969 400.308594 C 437.371094 400.394531 436.777344 400.5625 436.097656 400.816406 C 435.675781 419.695312 434.40625 437.894531 432.371094 455.078125 Z M 480.824219 345.457031 C 480.824219 345.371094 480.910156 345.371094 480.910156 345.285156 C 489.125 342.492188 497.171875 339.191406 504.796875 335.210938 C 502.511719 329.710938 499.96875 324.292969 497.257812 319.128906 C 497.257812 319.296875 497.257812 319.550781 497.257812 319.71875 C 497.257812 335.632812 484.128906 324.460938 484.808594 335.378906 C 484.890625 336.90625 484.128906 337.328125 483.621094 338.511719 C 482.519531 341.816406 481.671875 343.847656 480.824219 345.457031 Z M 497.257812 318.960938 C 497.257812 318.789062 497.257812 318.621094 497.257812 318.453125 C 497.257812 318.621094 497.257812 318.789062 497.257812 318.960938 Z M 497.257812 318.28125 C 497.171875 318.113281 497.171875 318.03125 497.171875 317.859375 C 497.171875 318.027344 497.171875 318.113281 497.257812 318.28125 Z M 497.171875 317.605469 C 497.171875 317.519531 497.171875 317.4375 497.171875 317.265625 C 497.171875 317.4375 497.171875 317.519531 497.171875 317.605469 Z M 497.171875 317.097656 C 497.171875 316.929688 497.171875 316.84375 497.089844 316.675781 C 497.171875 316.84375 497.171875 316.929688 497.171875 317.097656 Z M 497.089844 316.503906 C 497.089844 316.335938 497.089844 316.164062 497.089844 315.996094 C 497.089844 316.164062 497.089844 316.335938 497.089844 316.503906 Z M 497.089844 315.914062 C 497.003906 315.828125 497.003906 315.660156 497.003906 315.488281 C 497.003906 315.660156 497.003906 315.828125 497.089844 315.914062 Z M 497.003906 315.320312 C 497.003906 315.234375 496.917969 315.066406 496.917969 314.980469 C 496.917969 315.066406 497.003906 315.234375 497.003906 315.320312 Z M 496.917969 314.8125 C 496.917969 314.726562 496.917969 314.558594 496.832031 314.472656 C 496.917969 314.558594 496.917969 314.726562 496.917969 314.8125 Z M 496.832031 314.304688 C 496.832031 314.21875 496.832031 314.132812 496.75 314.050781 C 496.832031 314.136719 496.832031 314.21875 496.832031 314.304688 Z M 496.75 313.878906 C 496.75 313.710938 496.75 313.625 496.664062 313.542969 C 496.75 313.625 496.75 313.710938 496.75 313.878906 Z M 496.664062 313.457031 C 496.664062 313.285156 496.578125 313.117188 496.578125 313.035156 C 496.578125 313.117188 496.664062 313.289062 496.664062 313.457031 Z M 496.578125 312.863281 C 496.496094 312.78125 496.496094 312.695312 496.496094 312.613281 C 496.496094 312.695312 496.496094 312.78125 496.578125 312.863281 Z M 496.410156 312.441406 C 496.410156 312.355469 496.410156 312.273438 496.410156 312.1875 C 496.410156 312.273438 496.410156 312.355469 496.410156 312.441406 Z M 496.324219 312.019531 C 496.324219 311.933594 496.324219 311.847656 496.242188 311.847656 C 496.324219 311.851562 496.324219 311.933594 496.324219 312.019531 Z M 496.242188 311.679688 C 496.15625 311.59375 496.15625 311.511719 496.15625 311.425781 C 496.15625 311.511719 496.15625 311.59375 496.242188 311.679688 Z M 496.070312 311.339844 C 496.070312 311.171875 495.984375 311.085938 495.984375 310.917969 C 495.988281 311.085938 496.070312 311.171875 496.070312 311.339844 Z M 495.988281 310.917969 C 495.902344 310.832031 495.902344 310.664062 495.816406 310.578125 C 495.902344 310.664062 495.902344 310.832031 495.988281 310.917969 Z M 495.816406 310.496094 C 495.816406 310.410156 495.734375 310.324219 495.734375 310.242188 C 495.734375 310.324219 495.816406 310.410156 495.816406 310.496094 Z M 495.648438 310.15625 C 495.648438 310.070312 495.648438 309.984375 495.5625 309.902344 C 495.648438 309.984375 495.648438 310.070312 495.648438 310.15625 Z M 495.5625 309.816406 C 495.480469 309.734375 495.480469 309.648438 495.480469 309.5625 C 495.480469 309.648438 495.480469 309.734375 495.5625 309.816406 Z M 495.394531 309.480469 C 495.394531 309.394531 495.308594 309.308594 495.308594 309.226562 C 495.308594 309.308594 495.394531 309.394531 495.394531 309.480469 Z M 495.226562 309.140625 C 495.226562 309.054688 495.140625 308.972656 495.140625 308.886719 C 495.140625 308.972656 495.226562 309.054688 495.226562 309.140625 Z M 495.054688 308.800781 C 495.054688 308.71875 494.96875 308.632812 494.96875 308.546875 C 494.96875 308.632812 495.054688 308.71875 495.054688 308.800781 Z M 494.886719 308.460938 C 494.886719 308.378906 494.886719 308.292969 494.800781 308.292969 C 494.886719 308.292969 494.886719 308.378906 494.886719 308.460938 Z M 494.800781 308.125 C 494.714844 308.125 494.714844 308.039062 494.632812 307.953125 C 494.714844 308.039062 494.714844 308.125 494.800781 308.125 Z M 494.632812 307.871094 C 494.546875 307.785156 494.546875 307.699219 494.460938 307.617188 C 494.546875 307.699219 494.546875 307.785156 494.632812 307.871094 Z M 494.460938 307.53125 C 494.378906 307.445312 494.378906 307.363281 494.292969 307.277344 C 494.378906 307.363281 494.378906 307.445312 494.460938 307.53125 Z M 494.292969 307.195312 C 494.207031 307.109375 494.207031 307.023438 494.121094 306.941406 C 494.207031 307.023438 494.207031 307.109375 494.292969 307.195312 Z M 493.445312 305.753906 L 493.445312 305.667969 Z M 493.277344 305.414062 C 493.277344 305.328125 493.277344 305.328125 493.277344 305.328125 C 493.277344 305.328125 493.277344 305.332031 493.277344 305.414062 Z M 493.105469 305.078125 L 493.105469 304.992188 Z M 493.023438 304.738281 C 492.9375 304.738281 492.9375 304.738281 492.9375 304.652344 C 492.9375 304.738281 492.9375 304.738281 493.023438 304.738281 Z M 492.851562 304.484375 C 492.769531 304.398438 492.769531 304.398438 492.769531 304.316406 C 492.769531 304.398438 492.769531 304.398438 492.851562 304.484375 Z M 492.683594 304.0625 C 492.683594 304.0625 492.597656 304.0625 492.597656 303.976562 C 492.597656 304.0625 492.683594 304.0625 492.683594 304.0625 Z M 492.429688 303.722656 C 492.429688 303.636719 492.429688 303.636719 492.429688 303.636719 C 492.429688 303.636719 492.429688 303.636719 492.429688 303.722656 Z M 492.34375 303.300781 C 492.257812 303.300781 492.257812 303.300781 492.257812 303.214844 C 492.257812 303.300781 492.257812 303.300781 492.34375 303.300781 Z M 492.175781 302.960938 L 492.089844 302.875 Z M 492.003906 302.621094 C 492.003906 302.539062 492.003906 302.539062 492.003906 302.453125 C 492.003906 302.539062 492.003906 302.539062 492.003906 302.621094 Z M 491.835938 302.199219 L 491.835938 302.113281 Z M 491.667969 301.777344 L 491.667969 301.691406 Z M 491.582031 301.351562 C 491.496094 301.265625 491.496094 301.265625 491.496094 301.183594 C 491.496094 301.265625 491.496094 301.265625 491.582031 301.351562 Z M 491.414062 300.929688 C 491.414062 300.84375 491.414062 300.84375 491.414062 300.757812 C 491.414062 300.84375 491.414062 300.84375 491.414062 300.929688 Z M 491.328125 300.503906 C 491.242188 300.421875 491.242188 300.335938 491.242188 300.335938 C 491.242188 300.335938 491.242188 300.421875 491.328125 300.503906 Z M 491.160156 300 C 491.160156 300 491.160156 299.914062 491.160156 299.828125 C 491.160156 299.914062 491.160156 300 491.160156 300 Z M 491.074219 299.488281 C 490.988281 299.488281 490.988281 299.40625 490.988281 299.40625 C 490.988281 299.40625 490.988281 299.488281 491.074219 299.488281 Z M 490.90625 298.898438 L 490.90625 298.8125 Z M 490.820312 298.390625 C 490.820312 298.390625 490.734375 298.304688 490.734375 298.21875 C 490.734375 298.304688 490.820312 298.390625 490.820312 298.390625 Z M 490.734375 297.882812 C 490.648438 297.796875 490.648438 297.796875 490.648438 297.710938 C 490.652344 297.796875 490.652344 297.796875 490.734375 297.882812 Z M 490.566406 297.371094 C 490.566406 297.289062 490.566406 297.203125 490.566406 297.121094 C 490.566406 297.203125 490.566406 297.289062 490.566406 297.371094 Z M 490.480469 296.78125 C 490.480469 296.695312 490.480469 296.609375 490.480469 296.609375 C 490.480469 296.609375 490.480469 296.695312 490.480469 296.78125 Z M 478.875 219.578125 C 478.875 219.492188 478.960938 219.410156 479.046875 219.242188 C 478.960938 219.410156 478.875 219.492188 478.875 219.578125 Z M 290.65625 429.429688 C 290.570312 429.429688 290.484375 429.429688 290.484375 429.429688 C 290.484375 429.429688 290.570312 429.429688 290.65625 429.429688 Z M 290.402344 429.429688 C 290.402344 429.429688 290.316406 429.429688 290.230469 429.429688 C 290.316406 429.429688 290.402344 429.429688 290.402344 429.429688 Z M 290.230469 429.429688 L 290.144531 429.515625 Z M 290.0625 429.515625 L 289.976562 429.515625 Z M 289.976562 429.515625 C 289.890625 429.515625 289.890625 429.515625 289.808594 429.515625 C 289.890625 429.515625 289.890625 429.515625 289.976562 429.515625 Z M 289.808594 429.515625 L 289.722656 429.515625 Z M 289.722656 429.515625 C 289.636719 429.515625 289.636719 429.515625 289.554688 429.515625 C 289.636719 429.515625 289.636719 429.515625 289.722656 429.515625 Z M 289.554688 429.515625 C 289.554688 429.515625 289.554688 429.515625 289.46875 429.515625 C 289.554688 429.515625 289.554688 429.515625 289.554688 429.515625 Z M 289.46875 429.515625 C 289.46875 429.515625 289.46875 429.515625 289.382812 429.515625 C 289.46875 429.515625 289.46875 429.515625 289.46875 429.515625 Z M 289.382812 429.515625 Z M 289.382812 429.515625 L 289.296875 429.515625 Z M 289.300781 429.515625 C 289.046875 429.601562 288.789062 429.683594 288.539062 429.855469 C 288.789062 429.683594 289.042969 429.601562 289.300781 429.515625 Z M 288.539062 429.855469 C 288.199219 429.9375 287.945312 430.023438 287.691406 430.105469 C 287.945312 430.023438 288.199219 429.9375 288.539062 429.855469 Z M 319.203125 219.15625 C 319.117188 219.324219 319.03125 219.492188 318.863281 219.664062 C 319.03125 219.492188 319.117188 219.324219 319.203125 219.15625 Z M 318.777344 219.832031 C 318.691406 219.917969 318.609375 220.085938 318.523438 220.171875 C 318.609375 220.085938 318.691406 219.917969 318.777344 219.832031 Z M 318.355469 220.339844 C 318.355469 220.425781 318.269531 220.511719 318.183594 220.679688 C 318.269531 220.507812 318.355469 220.425781 318.355469 220.339844 Z M 318.015625 220.847656 C 318.015625 220.933594 317.929688 221.019531 317.84375 221.101562 C 317.929688 221.015625 318.015625 220.933594 318.015625 220.847656 Z M 317.761719 221.269531 C 317.675781 221.441406 317.507812 221.523438 317.421875 221.695312 C 317.507812 221.527344 317.675781 221.441406 317.761719 221.269531 Z M 317.421875 221.78125 C 317.335938 221.863281 317.25 222.03125 317.167969 222.117188 C 317.253906 222.03125 317.335938 221.863281 317.421875 221.78125 Z M 317.082031 222.289062 C 317 222.371094 317 222.457031 316.914062 222.542969 C 317 222.457031 317 222.371094 317.082031 222.289062 Z M 316.828125 222.710938 C 316.746094 222.796875 316.746094 222.882812 316.660156 222.964844 C 316.746094 222.878906 316.746094 222.792969 316.828125 222.710938 Z M 316.574219 223.132812 C 316.488281 223.21875 316.488281 223.304688 316.40625 223.386719 C 316.492188 223.304688 316.492188 223.21875 316.574219 223.132812 Z M 316.320312 223.554688 C 316.234375 223.640625 316.234375 223.808594 316.152344 223.894531 C 316.234375 223.8125 316.234375 223.640625 316.320312 223.554688 Z M 316.152344 223.980469 C 316.066406 224.066406 315.980469 224.148438 315.980469 224.320312 C 315.980469 224.148438 316.066406 224.066406 316.152344 223.980469 Z M 315.898438 224.402344 C 315.8125 224.488281 315.8125 224.574219 315.726562 224.65625 C 315.8125 224.574219 315.8125 224.488281 315.898438 224.402344 Z M 315.730469 224.742188 C 315.644531 224.828125 315.644531 224.910156 315.558594 224.996094 C 315.644531 224.910156 315.644531 224.828125 315.730469 224.742188 Z M 315.558594 225.164062 C 315.472656 225.25 315.472656 225.25 315.472656 225.335938 C 315.472656 225.25 315.472656 225.25 315.558594 225.164062 Z M 315.386719 225.503906 C 315.386719 225.589844 315.304688 225.671875 315.21875 225.757812 C 315.304688 225.671875 315.386719 225.589844 315.386719 225.503906 Z M 315.21875 225.84375 C 315.21875 225.925781 315.136719 226.011719 315.136719 226.09375 C 315.136719 226.011719 315.21875 225.925781 315.21875 225.84375 Z M 315.136719 226.183594 C 315.050781 226.265625 315.050781 226.351562 315.050781 226.433594 C 315.050781 226.351562 315.050781 226.265625 315.136719 226.183594 Z M 314.964844 226.519531 C 314.964844 226.605469 314.964844 226.691406 314.964844 226.773438 C 314.964844 226.6875 314.964844 226.605469 314.964844 226.519531 Z M 314.882812 226.859375 C 314.882812 226.945312 314.882812 226.945312 314.882812 227.027344 C 314.882812 226.945312 314.882812 226.945312 314.882812 226.859375 Z M 314.796875 227.113281 C 314.796875 227.199219 314.796875 227.28125 314.796875 227.449219 C 314.796875 227.28125 314.796875 227.199219 314.796875 227.113281 Z M 314.710938 227.449219 C 314.710938 227.535156 314.710938 227.621094 314.710938 227.703125 C 314.710938 227.621094 314.710938 227.535156 314.710938 227.449219 Z M 314.710938 227.789062 C 314.710938 227.875 314.625 227.875 314.625 227.960938 C 314.625 227.875 314.710938 227.875 314.710938 227.789062 Z M 314.625 228.042969 C 314.625 228.128906 314.625 228.128906 314.625 228.214844 C 314.625 228.128906 314.625 228.128906 314.625 228.042969 Z M 314.625 228.296875 C 314.625 228.382812 314.625 228.46875 314.625 228.46875 C 314.625 228.46875 314.625 228.382812 314.625 228.296875 Z M 314.542969 228.550781 C 314.542969 228.636719 314.542969 228.722656 314.542969 228.804688 C 314.542969 228.722656 314.542969 228.636719 314.542969 228.550781 Z M 314.542969 228.890625 C 314.542969 228.890625 314.542969 228.976562 314.542969 229.0625 C 314.542969 228.972656 314.542969 228.890625 314.542969 228.890625 Z M 314.542969 229.144531 L 314.542969 229.230469 Z M 314.542969 229.3125 C 314.542969 229.398438 314.542969 229.484375 314.628906 229.484375 C 314.542969 229.484375 314.542969 229.398438 314.542969 229.3125 Z M 314.625 229.566406 C 314.625 229.652344 314.625 229.652344 314.625 229.738281 C 314.625 229.652344 314.625 229.652344 314.625 229.566406 Z M 314.625 229.820312 C 314.625 229.820312 314.625 229.90625 314.625 229.992188 C 314.625 229.90625 314.625 229.820312 314.625 229.820312 Z M 314.625 230.074219 L 314.710938 230.160156 Z M 314.710938 230.246094 C 314.710938 230.328125 314.710938 230.328125 314.710938 230.414062 C 314.710938 230.328125 314.710938 230.328125 314.710938 230.246094 Z M 314.796875 230.5 L 314.796875 230.582031 Z M 314.796875 230.667969 C 314.796875 230.753906 314.882812 230.753906 314.882812 230.839844 C 314.882812 230.753906 314.796875 230.753906 314.796875 230.667969 Z M 314.882812 230.835938 C 314.882812 230.921875 314.882812 231.007812 314.964844 231.007812 C 314.882812 231.007812 314.882812 230.921875 314.882812 230.835938 Z M 314.964844 231.089844 C 314.964844 231.089844 314.964844 231.175781 315.050781 231.261719 C 314.964844 231.175781 314.964844 231.089844 314.964844 231.089844 Z M 315.050781 231.261719 C 315.050781 231.34375 315.050781 231.34375 315.136719 231.429688 C 315.050781 231.34375 315.050781 231.34375 315.050781 231.261719 Z M 315.136719 231.429688 C 315.136719 231.515625 315.136719 231.515625 315.21875 231.601562 C 315.136719 231.515625 315.136719 231.515625 315.136719 231.429688 Z M 315.21875 231.597656 C 315.21875 231.683594 315.21875 231.683594 315.304688 231.769531 C 315.21875 231.683594 315.21875 231.683594 315.21875 231.597656 Z M 315.304688 231.769531 C 315.304688 231.851562 315.390625 231.9375 315.390625 231.9375 C 315.390625 231.9375 315.304688 231.851562 315.304688 231.769531 Z M 315.386719 232.023438 C 315.472656 232.023438 315.472656 232.105469 315.472656 232.105469 C 315.472656 232.105469 315.472656 232.023438 315.386719 232.023438 Z M 315.558594 232.191406 L 315.558594 232.277344 Z M 315.644531 232.359375 C 315.644531 232.359375 315.644531 232.445312 315.730469 232.445312 C 315.644531 232.445312 315.644531 232.359375 315.644531 232.359375 Z M 315.730469 232.53125 L 315.8125 232.617188 Z M 315.8125 232.699219 C 315.898438 232.699219 315.898438 232.785156 315.980469 232.785156 C 315.898438 232.785156 315.898438 232.699219 315.8125 232.699219 Z M 315.980469 232.867188 L 316.066406 232.953125 Z M 316.066406 233.039062 C 316.152344 233.039062 316.152344 233.125 316.152344 233.125 C 316.152344 233.125 316.152344 233.039062 316.066406 233.039062 Z M 316.234375 233.207031 C 316.234375 233.207031 316.234375 233.207031 316.320312 233.292969 C 316.234375 233.207031 316.234375 233.207031 316.234375 233.207031 Z M 316.320312 233.292969 C 316.320312 233.378906 316.40625 233.378906 316.40625 233.460938 C 316.40625 233.378906 316.320312 233.378906 316.320312 233.292969 Z M 316.914062 234.054688 L 316.914062 234.140625 Z M 411.195312 283.574219 C 414.582031 279.9375 406.621094 272.148438 396.457031 282.304688 C 382.816406 295.933594 393.066406 286.625 382.816406 290.769531 C 378.496094 292.546875 393.492188 304.738281 395.609375 297.882812 C 397.558594 291.617188 410.6875 308.292969 409.753906 295.511719 C 409.585938 293.734375 394.507812 285.945312 411.195312 283.574219 Z M 411.195312 283.574219 " fill-opacity="1" fill-rule="evenodd"/><g fill="#cf2727" fill-opacity="1"><g transform="translate(122.063728, 272.22268)"><g/></g></g><g fill="#cf2727" fill-opacity="1"><g transform="translate(156.702736, 218.406783)"><g/></g></g><g fill="#cf2727" fill-opacity="1"><g transform="translate(203.368873, 174.608597)"><g/></g></g><g fill="#cf2727" fill-opacity="1"><g transform="translate(259.270754, 143.447896)"><g/></g></g><g fill="#cf2727" fill-opacity="1"><g transform="translate(318.014342, 123.514072)"><g><path d="M 90.640625 1.078125 L 92.171875 1.109375 L 92.15625 2.0625 L 63.453125 1.421875 L 63.46875 0.5625 L 64.90625 0.59375 C 65.988281 0.5625 66.921875 0.140625 67.703125 -0.671875 C 68.492188 -1.492188 68.835938 -2.414062 68.734375 -3.4375 L 65.78125 -38.265625 L 47.09375 -7.671875 C 44.644531 -3.765625 43.347656 -0.242188 43.203125 2.890625 L 42.25 2.875 L 18.59375 -39.03125 L 14.09375 -4.671875 C 13.9375 -3.648438 14.226562 -2.695312 14.96875 -1.8125 C 15.71875 -0.9375 16.632812 -0.488281 17.71875 -0.46875 L 19.15625 -0.4375 L 19.140625 0.421875 L -0.859375 -0.015625 L -0.84375 -0.96875 L 0.6875 -0.9375 C 2.46875 -0.894531 4.023438 -1.40625 5.359375 -2.46875 C 6.703125 -3.53125 7.519531 -4.976562 7.8125 -6.8125 L 17.140625 -68 L 18 -67.96875 L 46.5625 -18.5 L 76.1875 -66.671875 L 77.046875 -66.640625 L 83.8125 -5.109375 C 84.09375 -3.253906 84.875 -1.765625 86.15625 -0.640625 C 87.4375 0.472656 88.929688 1.046875 90.640625 1.078125 Z M 90.640625 1.078125 "/></g></g></g><g fill="#cf2727" fill-opacity="1"><g transform="translate(443.909568, 137.226953)"><g><path d="M 5.15625 1.421875 C 6.644531 2.140625 8.175781 2.222656 9.75 1.671875 C 11.332031 1.128906 12.515625 0.117188 13.296875 -1.359375 L 36.421875 -49.40625 C 37.023438 -50.945312 37.117188 -52.25 36.703125 -53.3125 C 35.941406 -55.238281 34.84375 -56.550781 33.40625 -57.25 L 32.28125 -57.796875 L 32.6875 -58.65625 L 65.71875 -42.75 C 68.539062 -41.382812 70.972656 -40.472656 73.015625 -40.015625 C 75.066406 -39.554688 76.335938 -39.320312 76.828125 -39.3125 L 69.5625 -24.21875 L 68.75 -24.703125 L 69.203125 -25.65625 C 70.921875 -29.21875 70.8125 -32.390625 68.875 -35.171875 C 67.96875 -36.515625 66.664062 -37.632812 64.96875 -38.53125 L 50.484375 -45.5 L 38.390625 -20.390625 L 49.78125 -14.90625 C 51.9375 -13.945312 54.046875 -13.835938 56.109375 -14.578125 C 58.171875 -15.328125 59.695312 -16.734375 60.6875 -18.796875 L 61.0625 -19.578125 L 61.921875 -19.171875 L 52.328125 0.75 L 51.46875 0.34375 L 51.796875 -0.34375 C 52.828125 -2.46875 53 -4.546875 52.3125 -6.578125 C 51.625 -8.609375 50.257812 -10.15625 48.21875 -11.21875 L 36.65625 -16.78125 L 24.984375 7.46875 L 36.28125 12.90625 C 40.476562 14.925781 44.582031 15.410156 48.59375 14.359375 C 52.601562 13.316406 56.367188 10.914062 59.890625 7.15625 L 60.75 7.5625 L 48.296875 23.25 L 3.625 1.734375 L 4.03125 0.875 Z M 5.15625 1.421875 "/></g></g></g><g fill="#cf2727" fill-opacity="1"><g transform="translate(528.778313, 184.231878)"><g><path d="M 75.984375 -14.8125 C 83.410156 -6.289062 87.019531 2.414062 86.8125 11.3125 C 86.613281 20.21875 82.613281 28.066406 74.8125 34.859375 C 67.019531 41.648438 58.703125 44.535156 49.859375 43.515625 C 41.023438 42.503906 32.894531 37.738281 25.46875 29.21875 L 2.640625 3.03125 L 3.359375 2.40625 L 4.171875 3.34375 C 5.265625 4.59375 6.644531 5.273438 8.3125 5.390625 C 9.976562 5.503906 11.457031 5.039062 12.75 4 L 53.171875 -31.21875 C 54.316406 -32.21875 54.878906 -33.535156 54.859375 -35.171875 C 54.835938 -36.816406 54.300781 -38.238281 53.25 -39.4375 L 52.4375 -40.375 L 53.15625 -41 Z M 27.75 25.59375 C 30.769531 29.050781 34.269531 31.265625 38.25 32.234375 C 42.238281 33.210938 46.492188 32.914062 51.015625 31.34375 C 55.535156 29.78125 59.765625 27.28125 63.703125 23.84375 C 67.648438 20.414062 70.660156 17.09375 72.734375 13.875 C 74.804688 10.664062 76.175781 7.503906 76.84375 4.390625 C 78.238281 -2.078125 76.675781 -7.90625 72.15625 -13.09375 L 64.421875 -21.984375 L 20.015625 16.703125 Z M 27.75 25.59375 "/></g></g></g><g fill="#cf2727" fill-opacity="1"><g transform="translate(596.714141, 278.275505)"><g><path d="M 2.703125 4.609375 C 3.273438 6.171875 4.320312 7.300781 5.84375 8 C 7.363281 8.707031 8.914062 8.800781 10.5 8.28125 L 60.359375 -10.0625 C 61.898438 -10.6875 63.003906 -11.75 63.671875 -13.25 C 64.335938 -14.757812 64.382812 -16.296875 63.8125 -17.859375 L 63.390625 -19.03125 L 64.28125 -19.359375 L 74.328125 7.96875 L 73.40625 8.203125 L 73 7.125 C 72.425781 5.5625 71.390625 4.410156 69.890625 3.671875 C 68.398438 2.929688 66.875 2.847656 65.3125 3.421875 L 15.453125 21.765625 C 13.890625 22.335938 12.757812 23.394531 12.0625 24.9375 C 11.375 26.476562 11.316406 28.03125 11.890625 29.59375 L 12.296875 30.671875 L 11.4375 31.09375 L 1.390625 3.765625 L 2.28125 3.4375 Z M 2.703125 4.609375 "/></g></g></g><g fill="#cf2727" fill-opacity="1"><g transform="translate(617.234718, 351.874107)"><g/></g></g><g fill="#cf2727" fill-opacity="1"><g transform="translate(617.729963, 415.872263)"><g/></g></g><g fill="#cf2727" fill-opacity="1"><g transform="translate(606.238991, 477.011344)"><g><path d="M -23.796875 44.71875 C -24.597656 46.164062 -24.851562 47.484375 -24.5625 48.671875 C -24 50.660156 -23.007812 52.082031 -21.59375 52.9375 L -0.25 64.828125 L 14.84375 37.734375 L -6.40625 25.890625 C -7.851562 25.085938 -9.390625 24.929688 -11.015625 25.421875 C -12.648438 25.910156 -13.867188 26.878906 -14.671875 28.328125 L -15.234375 29.328125 L -16.109375 28.9375 L -1.953125 3.515625 L -1.125 3.984375 L -1.734375 5.0625 C -2.535156 6.507812 -2.707031 8.035156 -2.25 9.640625 C -1.789062 11.253906 -0.851562 12.488281 0.5625 13.34375 L 46.90625 39.140625 C 48.382812 39.898438 49.925781 40.046875 51.53125 39.578125 C 53.144531 39.117188 54.351562 38.164062 55.15625 36.71875 L 55.765625 35.640625 L 56.609375 36.109375 L 42.453125 61.53125 L 41.65625 60.984375 L 42.21875 59.984375 C 43.019531 58.535156 43.203125 56.992188 42.765625 55.359375 C 42.328125 53.722656 41.382812 52.5 39.9375 51.6875 L 18.4375 39.71875 L 3.34375 66.8125 L 24.84375 78.78125 C 26.320312 79.539062 27.863281 79.691406 29.46875 79.234375 C 31.082031 78.773438 32.289062 77.820312 33.09375 76.375 L 33.6875 75.296875 L 34.53125 75.765625 L 20.390625 101.1875 L 19.546875 100.71875 L 20.15625 99.625 C 20.957031 98.175781 21.132812 96.632812 20.6875 95 C 20.25 93.363281 19.304688 92.140625 17.859375 91.328125 L -28.484375 65.53125 C -29.929688 64.726562 -31.46875 64.570312 -33.09375 65.0625 C -34.71875 65.550781 -35.929688 66.519531 -36.734375 67.96875 L -37.34375 69.0625 L -38.171875 68.59375 L -24.03125 43.171875 L -23.203125 43.640625 Z M -23.796875 44.71875 "/></g></g></g><g fill="#cf2727" fill-opacity="1"><g transform="translate(540.42503, 575.301523)"><g><path d="M -3.609375 3.953125 C -4.921875 4.953125 -5.6875 6.28125 -5.90625 7.9375 C -6.132812 9.601562 -5.769531 11.109375 -4.8125 12.453125 L 27.546875 54.84375 C 28.648438 56.082031 29.769531 56.757812 30.90625 56.875 C 32.976562 57.050781 34.644531 56.660156 35.90625 55.703125 L 36.90625 54.9375 L 37.484375 55.703125 L 8.328125 77.953125 C 5.847656 79.847656 3.941406 81.601562 2.609375 83.21875 C 1.273438 84.84375 0.484375 85.863281 0.234375 86.28125 L -9.921875 72.96875 L -9.09375 72.46875 L -8.46875 73.296875 C -6.0625 76.441406 -3.1875 77.789062 0.15625 77.34375 C 1.769531 77.132812 3.359375 76.476562 4.921875 75.375 L 17.703125 65.609375 L 0.796875 43.46875 L -9.25 51.140625 C -11.082031 52.640625 -12.132812 54.472656 -12.40625 56.640625 C -12.675781 58.804688 -12.117188 60.800781 -10.734375 62.625 L -10.203125 63.3125 L -10.953125 63.890625 L -24.375 46.3125 L -23.625 45.734375 L -23.15625 46.34375 C -21.71875 48.21875 -19.9375 49.304688 -17.8125 49.609375 C -15.695312 49.921875 -13.703125 49.40625 -11.828125 48.0625 L -1.640625 40.28125 L -17.96875 18.890625 L -27.9375 26.5 C -31.632812 29.332031 -33.925781 32.769531 -34.8125 36.8125 C -35.707031 40.863281 -35.269531 45.304688 -33.5 50.140625 L -34.25 50.71875 L -42.609375 32.53125 L -3.1875 2.4375 L -2.609375 3.1875 Z M -3.609375 3.953125 "/></g></g></g><g fill="#cf2727" fill-opacity="1"><g transform="translate(458.890309, 628.749506)"><g><path d="M -4.796875 2.390625 C -6.378906 2.847656 -7.570312 3.804688 -8.375 5.265625 C -9.1875 6.734375 -9.394531 8.269531 -9 9.875 L 5.78125 60.828125 C 6.300781 62.398438 7.289062 63.585938 8.75 64.390625 C 10.21875 65.203125 11.742188 65.378906 13.328125 64.921875 L 14.53125 64.578125 L 14.796875 65.484375 L -13.15625 73.578125 L -13.328125 72.65625 L -12.21875 72.328125 C -10.632812 71.867188 -9.421875 70.898438 -8.578125 69.421875 C -7.742188 67.953125 -7.554688 66.421875 -8.015625 64.828125 L -23.59375 11.125 L -35.640625 14.609375 C -40.109375 15.910156 -43.484375 18.285156 -45.765625 21.734375 C -48.054688 25.191406 -49.257812 29.5 -49.375 34.65625 L -50.28125 34.921875 L -51.484375 14.921875 L -3.859375 1.125 L -3.59375 2.046875 Z M -4.796875 2.390625 "/></g></g></g><g fill="#cf2727" fill-opacity="1"><g transform="translate(365.053499, 649.067455)"><g><path d="M -64.171875 42.15625 C -63.898438 39.238281 -63.066406 36.523438 -61.671875 34.015625 C -59.046875 29.191406 -54.726562 26.132812 -48.71875 24.84375 C -46.945312 24.425781 -45.332031 24.285156 -43.875 24.421875 C -39.363281 24.835938 -35.4375 26.378906 -32.09375 29.046875 L -32.1875 30.015625 C -36.925781 29.441406 -40.910156 30.644531 -44.140625 33.625 C -46.941406 36.1875 -48.550781 39.722656 -48.96875 44.234375 C -49.382812 48.816406 -48.613281 52.460938 -46.65625 55.171875 C -44.695312 57.890625 -41.835938 59.421875 -38.078125 59.765625 L -31.703125 60.34375 L -26.578125 4.5625 C -26.421875 2.914062 -26.890625 1.445312 -27.984375 0.15625 C -29.085938 -1.125 -30.46875 -1.84375 -32.125 -2 L -33.359375 -2.109375 L -33.265625 -3.0625 L -4.296875 -0.390625 L -4.390625 0.5625 L -5.625 0.4375 C -7.28125 0.289062 -8.742188 0.75 -10.015625 1.8125 C -11.296875 2.882812 -12.046875 4.242188 -12.265625 5.890625 L -17.171875 59.1875 C -17.316406 60.769531 -16.832031 62.140625 -15.71875 63.296875 C -14.613281 64.460938 -13.234375 65.117188 -11.578125 65.265625 L -10.34375 65.390625 L -10.4375 66.34375 L -42.265625 63.40625 C -50.023438 62.695312 -55.722656 60.503906 -59.359375 56.828125 C -63.109375 52.960938 -64.710938 48.070312 -64.171875 42.15625 Z M -64.171875 42.15625 "/></g></g></g><g fill="#cf2727" fill-opacity="1"><g transform="translate(265.891663, 630.903415)"><g/></g></g><g fill="#cf2727" fill-opacity="1"><g transform="translate(209.164065, 601.272514)"><g/></g></g><g fill="#cf2727" fill-opacity="1"><g transform="translate(161.325587, 558.757945)"><g/></g></g><g fill="#cf2727" fill-opacity="1"><g transform="translate(125.237704, 505.902683)"><g/></g></g><g fill="#cf2727" fill-opacity="1"><g transform="translate(103.059037, 445.868358)"><g/></g></g><g fill="#cf2727" fill-opacity="1"><g transform="translate(96.116237, 382.245975)"><g/></g></g><g fill="#cf2727" fill-opacity="1"><g transform="translate(104.824572, 318.841127)"><g/></g></g><g fill="#cf2727" fill-opacity="1"><g transform="translate(128.663165, 259.446419)"><g/></g></g><g fill="#cf2727" fill-opacity="1"><g transform="translate(166.206068, 207.614545)"><g/></g></g><g fill="#cf2727" fill-opacity="1"><g transform="translate(215.20765, 166.44593)"><g/></g></g><g fill="#cf2727" fill-opacity="1"><g transform="translate(272.73686, 138.403047)"><g/></g></g><g fill="#cf2727" fill-opacity="1"><g transform="translate(335.352523, 125.16334)"><g/></g></g><g fill="#cf2727" fill-opacity="1"><g transform="translate(399.309267, 127.518746)"><g/></g></g><g fill="#cf2727" fill-opacity="1"><g transform="translate(460.78144, 145.328354)"><g/></g></g><g fill="#cf2727" fill-opacity="1"><g transform="translate(516.092143, 177.526829)"><g/></g></g><g fill="#cf2727" fill-opacity="1"><g transform="translate(561.932707, 222.188328)"><g/></g></g><g fill="#cf2727" fill-opacity="1"><g transform="translate(595.561356, 276.641273)"><g/></g></g><g fill="#cf2727" fill-opacity="1"><g transform="translate(614.966584, 337.628569)"><g/></g></g><g fill="#cf2727" fill-opacity="1"><g transform="translate(618.98751, 401.502238)"><g/></g></g><g fill="#cf2727" fill-opacity="1"><g transform="translate(607.383697, 464.441587)"><g/></g></g><g fill="#cf2727" fill-opacity="1"><g transform="translate(580.849276, 522.681932)"><g/></g></g><g fill="#cf2727" fill-opacity="1"><g transform="translate(540.971334, 572.739493)"><g/></g></g><g fill="#cf2727" fill-opacity="1"><g transform="translate(490.13519, 611.620076)"><g/></g></g><g fill="#cf2727" fill-opacity="1"><g transform="translate(368.225301, 647.355405)"><g/></g></g><g fill="#cf2727" fill-opacity="1"><g transform="translate(304.443606, 642.072621)"><g/></g></g><g fill="#cf2727" fill-opacity="1"><g transform="translate(243.851822, 621.465628)"><g/></g></g><g fill="#cf2727" fill-opacity="1"><g transform="translate(190.074276, 586.767065)"><g/></g></g><g fill="#cf2727" fill-opacity="1"><g transform="translate(146.327726, 540.052575)"><g/></g></g><g fill="#cf2727" fill-opacity="1"><g transform="translate(115.228872, 484.116257)"><g/></g></g><g fill="#cf2727" fill-opacity="1"><g transform="translate(98.637936, 422.303978)"><g/></g></g><g fill="#cf2727" fill-opacity="1"><g transform="translate(97.547301, 358.313188)"><g/></g></g><g fill="#cf2727" fill-opacity="1"><g transform="translate(112.022208, 295.971477)"><g/></g></g><g fill="#cf2727" fill-opacity="1"><g transform="translate(141.196841, 239.007869)"><g/></g></g><g fill="#cf2727" fill-opacity="1"><g transform="translate(183.326106, 190.829679)"><g/></g></g><g fill="#cf2727" fill-opacity="1"><g transform="translate(235.889948, 154.318724)"><g/></g></g><g fill="#cf2727" fill-opacity="1"><g transform="translate(295.744328, 131.658899)"><g/></g></g><g fill="#cf2727" fill-opacity="1"><g transform="translate(359.308927, 124.205656)"><g/></g></g><g fill="#cf2727" fill-opacity="1"><g transform="translate(422.781674, 132.404783)"><g/></g></g><g fill="#cf2727" fill-opacity="1"><g transform="translate(482.365806, 155.765866)"><g/></g></g><g fill="#cf2727" fill-opacity="1"><g transform="translate(534.497343, 192.891528)"><g/></g></g><g fill="#cf2727" fill-opacity="1"><g transform="translate(576.057934, 241.56111)"><g/></g></g><g fill="#cf2727" fill-opacity="1"><g transform="translate(604.56166, 298.863409)"><g/></g></g><g fill="#cf2727" fill-opacity="1"><g transform="translate(618.30352, 361.37078)"><g/></g></g><g fill="#cf2727" fill-opacity="1"><g transform="translate(616.461568, 425.344329)"><g/></g></g><g fill="#cf2727" fill-opacity="1"><g transform="translate(599.14593, 486.957486)"><g/></g></g><g fill="#cf2727" fill-opacity="1"><g transform="translate(567.3924, 542.524765)"><g/></g></g><g fill="#cf2727" fill-opacity="1"><g transform="translate(523.100347, 588.722442)"><g/></g></g><g fill="#cf2727" fill-opacity="1"><g transform="translate(468.91905, 622.787076)"><g/></g></g><g fill="#cf2727" fill-opacity="1"><g transform="translate(408.089487, 642.68117)"><g/></g></g><g fill="#cf2727" fill-opacity="1"><g transform="translate(344.250157, 647.214626)"><g/></g></g><g fill="#cf2727" fill-opacity="1"><g transform="translate(281.219686, 636.116402)"><g/></g></g><g fill="#cf2727" fill-opacity="1"><g transform="translate(222.768277, 610.050234)"><g/></g></g><g fill="#cf2727" fill-opacity="1"><g transform="translate(172.392235, 570.57541)"><g/></g></g><g fill="#cf2727" fill-opacity="1"><g transform="translate(133.104829, 520.053006)"><g/></g></g><g fill="#cf2727" fill-opacity="1"><g transform="translate(107.256075, 461.505142)"><g/></g></g><g fill="#cf2727" fill-opacity="1"><g transform="translate(96.392129, 398.433818)"><g/></g></g><g fill="#cf2727" fill-opacity="1"><g transform="translate(101.162826, 334.611825)"><g/></g></g><g fill="#cf2727" fill-opacity="1"><g transform="translate(121.282806, 273.856577)"><g/></g></g><g fill="#cf2727" fill-opacity="1"><g transform="translate(155.548551, 219.802269)"><g/></g></g><g fill="#cf2727" fill-opacity="1"><g transform="translate(201.910483, 175.682182)"><g/></g></g><g fill="#cf2727" fill-opacity="1"><g transform="translate(257.595399, 144.135347)"><g/></g></g><g fill="#cf2727" fill-opacity="1"><g transform="translate(319.272474, 127.048818)"><g/></g></g><g fill="#cf2727" fill-opacity="1"><g transform="translate(383.252424, 125.444603)"><g/></g></g><g fill="#cf2727" fill-opacity="1"><g transform="translate(445.708346, 139.418632)"><g/></g></g><g fill="#cf2727" fill-opacity="1"><g transform="translate(502.904312, 168.135136)"><g/></g></g><g fill="#cf2727" fill-opacity="1"><g transform="translate(551.419086, 209.876292)"><g/></g></g><g fill="#cf2727" fill-opacity="1"><g transform="translate(588.350746, 262.145396)"><g/></g></g><g fill="#cf2727" fill-opacity="1"><g transform="translate(611.490275, 321.815978)"><g/></g></g><g fill="#cf2727" fill-opacity="1"><g transform="translate(619.453494, 385.31872)"><g/></g></g><g fill="#cf2727" fill-opacity="1"><g transform="translate(611.764065, 448.855223)"><g/></g></g><g fill="#cf2727" fill-opacity="1"><g transform="translate(588.881971, 508.624917)"><g/></g></g><g fill="#cf2727" fill-opacity="1"><g transform="translate(552.175961, 561.052748)"><g/></g></g><g fill="#cf2727" fill-opacity="1"><g transform="translate(601.520932, 485.19399)"><g><path d="M 73.46875 -99.75 L 111.6875 -100.78125 L 112.40625 -74.203125 L 74.1875 -73.171875 L 75.21875 -34.375 L 47.515625 -33.625 L 46.484375 -72.421875 L 8.140625 -71.390625 L 7.421875 -97.96875 L 45.765625 -99 L 44.71875 -137.796875 L 72.421875 -138.546875 Z M 73.46875 -99.75 "/></g></g></g></svg>